<svg xmlns="http://www.w3.org/2000/svg" xmlns:xlink="http://www.w3.org/1999/xlink" viewBox="0 0 900 88" width="900" height="88" role="img" aria-label="05 Contact">
<title>05 Contact</title>
<rect x="0.5" y="0.5" width="899" height="87" rx="12" fill="#10171e" stroke="#1d2832"/>
<text x="32" y="56" fill="#3ddc97" font-family="'Aptos Mono', 'Cascadia Mono', Consolas, 'SFMono-Regular', ui-monospace, monospace" font-size="24">05</text>
<text x="84" y="57" fill="#eaf3ef" font-family="Aptos, 'Segoe UI Variable Text', 'Segoe UI', Inter, 'Helvetica Neue', Arial, sans-serif" font-size="36" font-weight="600">Contact</text>
<path d="M712.0,44.0 713.0,43.9 714.0,43.6 715.0,43.1 716.0,42.7 717.0,42.4 718.0,42.4 719.0,42.7 720.0,43.4 721.0,44.3 722.0,45.5 723.0,46.6 724.0,47.6 725.0,48.1 726.0,48.2 727.0,47.6 728.0,46.4 729.0,44.6 730.0,42.6 731.0,40.6 732.0,38.8 733.0,37.6 734.0,37.2 735.0,37.7 736.0,39.1 737.0,41.3 738.0,44.0 739.0,46.9 740.0,49.7 741.0,51.8 742.0,53.0 743.0,53.1 744.0,51.9 745.0,49.6 746.0,46.4 747.0,42.8 748.0,39.1 749.0,35.9 750.0,33.6 751.0,32.7 752.0,33.2 753.0,35.2 754.0,38.4 755.0,42.5 756.0,47.0 757.0,51.2 758.0,54.5 759.0,56.6 760.0,57.1 761.0,55.8 762.0,53.0 763.0,48.9 764.0,44.0 765.0,39.0 766.0,34.6 767.0,31.3 768.0,29.7 769.0,29.8 770.0,31.9 771.0,35.6 772.0,40.4 773.0,45.8 774.0,51.1 775.0,55.4 776.0,58.4 777.0,59.5 778.0,58.5 779.0,55.7 780.0,51.3 781.0,45.9 782.0,40.2 783.0,35.0 784.0,30.9 785.0,28.5 786.0,28.2 787.0,29.9 788.0,33.4 789.0,38.3 790.0,44.0 791.0,49.7 792.0,54.6 793.0,58.1 794.0,59.8 795.0,59.5 796.0,57.1 797.0,53.0 798.0,47.8 799.0,42.1 800.0,36.7 801.0,32.3 802.0,29.5 803.0,28.5 804.0,29.6 805.0,32.6 806.0,36.9 807.0,42.2 808.0,47.6 809.0,52.4 810.0,56.1 811.0,58.2 812.0,58.3 813.0,56.7 814.0,53.4 815.0,49.0 816.0,44.0 817.0,39.1 818.0,35.0 819.0,32.2 820.0,30.9 821.0,31.4 822.0,33.5 823.0,36.8 824.0,41.0 825.0,45.5 826.0,49.6 827.0,52.8 828.0,54.8 829.0,55.3 830.0,54.4 831.0,52.1 832.0,48.9 833.0,45.2 834.0,41.6 835.0,38.4 836.0,36.1 837.0,34.9 838.0,35.0 839.0,36.2 840.0,38.3 841.0,41.1 842.0,44.0 843.0,46.7 844.0,48.9 845.0,50.3 846.0,50.8 847.0,50.4 848.0,49.2 849.0,47.4 850.0,45.4 851.0,43.4 852.0,41.6 853.0,40.4 854.0,39.8 855.0,39.9 856.0,40.4 857.0,41.4 858.0,42.5 859.0,43.7 860.0,44.6 861.0,45.3 862.0,45.6 863.0,45.6 864.0,45.3 865.0,44.9 866.0,44.4 867.0,44.1 868.0,44.0" fill="none" stroke="#3ddc97" stroke-width="2.2" stroke-linecap="round"/>
</svg>
